<mxfile host="app.diagrams.net" modified="2023-12-28T13:28:00.445Z" agent="Mozilla/5.0 (Windows NT 10.0; Win64; x64) AppleWebKit/537.36 (KHTML, like Gecko) Chrome/119.0.0.0 Safari/537.36 OPR/105.0.0.0" etag="G5_uGzr25EPDcn5IQLHI" version="22.1.15" type="device">
  <diagram name="Seite-1" id="JCzRLtM41ocu9JSM7O47">
    <mxGraphModel dx="1480" dy="830" grid="1" gridSize="10" guides="1" tooltips="1" connect="1" arrows="1" fold="1" page="1" pageScale="1" pageWidth="827" pageHeight="1169" math="0" shadow="0">
      <root>
        <mxCell id="0" />
        <mxCell id="1" parent="0" />
        <mxCell id="0fUqM6vZjKM-Aj-SnjUb-1" value="...,-2,-1,0,1,2,..." style="rounded=1;whiteSpace=wrap;html=1;fillColor=#dae8fc;strokeColor=#6c8ebf;" parent="1" vertex="1">
          <mxGeometry x="40" y="380" width="120" height="40" as="geometry" />
        </mxCell>
        <mxCell id="0fUqM6vZjKM-Aj-SnjUb-2" value="Identity" style="rounded=1;whiteSpace=wrap;html=1;fillColor=#e1d5e7;strokeColor=#9673a6;" parent="1" vertex="1">
          <mxGeometry x="240" y="260" width="80" height="80" as="geometry" />
        </mxCell>
        <mxCell id="0fUqM6vZjKM-Aj-SnjUb-3" value="...,-2,-1,0,1,2,..." style="rounded=1;whiteSpace=wrap;html=1;fillColor=#dae8fc;strokeColor=#6c8ebf;" parent="1" vertex="1">
          <mxGeometry x="360" y="350" width="120" height="40" as="geometry" />
        </mxCell>
        <mxCell id="0fUqM6vZjKM-Aj-SnjUb-4" value="...,2,1,0,-1,-2" style="rounded=1;whiteSpace=wrap;html=1;fillColor=#dae8fc;strokeColor=#6c8ebf;" parent="1" vertex="1">
          <mxGeometry x="360" y="560" width="120" height="40" as="geometry" />
        </mxCell>
        <mxCell id="0fUqM6vZjKM-Aj-SnjUb-5" value="180° rotation" style="rounded=1;whiteSpace=wrap;html=1;fillColor=#e1d5e7;strokeColor=#9673a6;" parent="1" vertex="1">
          <mxGeometry x="240" y="460" width="80" height="80" as="geometry" />
        </mxCell>
        <mxCell id="0fUqM6vZjKM-Aj-SnjUb-6" value="Activation&lt;br&gt;Function" style="rounded=1;whiteSpace=wrap;html=1;fillColor=#e1d5e7;strokeColor=#9673a6;" parent="1" vertex="1">
          <mxGeometry x="510" y="260" width="80" height="80" as="geometry" />
        </mxCell>
        <mxCell id="0fUqM6vZjKM-Aj-SnjUb-7" value="Activation&lt;br&gt;Function" style="rounded=1;whiteSpace=wrap;html=1;fillColor=#e1d5e7;strokeColor=#9673a6;" parent="1" vertex="1">
          <mxGeometry x="510" y="460" width="80" height="80" as="geometry" />
        </mxCell>
        <mxCell id="0fUqM6vZjKM-Aj-SnjUb-8" value="" style="endArrow=classic;html=1;rounded=0;exitX=1;exitY=0.5;exitDx=0;exitDy=0;entryX=0;entryY=0.5;entryDx=0;entryDy=0;" parent="1" source="0fUqM6vZjKM-Aj-SnjUb-1" target="0fUqM6vZjKM-Aj-SnjUb-2" edge="1">
          <mxGeometry width="50" height="50" relative="1" as="geometry">
            <mxPoint x="360" y="410" as="sourcePoint" />
            <mxPoint x="410" y="360" as="targetPoint" />
          </mxGeometry>
        </mxCell>
        <mxCell id="0fUqM6vZjKM-Aj-SnjUb-9" value="" style="endArrow=classic;html=1;rounded=0;exitX=1;exitY=0.5;exitDx=0;exitDy=0;entryX=0;entryY=0.5;entryDx=0;entryDy=0;" parent="1" source="0fUqM6vZjKM-Aj-SnjUb-1" target="0fUqM6vZjKM-Aj-SnjUb-5" edge="1">
          <mxGeometry width="50" height="50" relative="1" as="geometry">
            <mxPoint x="210" y="430" as="sourcePoint" />
            <mxPoint x="250" y="330" as="targetPoint" />
          </mxGeometry>
        </mxCell>
        <mxCell id="0fUqM6vZjKM-Aj-SnjUb-11" value="" style="endArrow=classic;html=1;rounded=0;exitX=1;exitY=0.5;exitDx=0;exitDy=0;entryX=0;entryY=0.5;entryDx=0;entryDy=0;" parent="1" target="0fUqM6vZjKM-Aj-SnjUb-35" edge="1">
          <mxGeometry width="50" height="50" relative="1" as="geometry">
            <mxPoint x="320" y="500" as="sourcePoint" />
            <mxPoint x="360" y="500" as="targetPoint" />
          </mxGeometry>
        </mxCell>
        <mxCell id="0fUqM6vZjKM-Aj-SnjUb-12" value="" style="endArrow=classic;html=1;rounded=0;exitX=1;exitY=0.5;exitDx=0;exitDy=0;entryX=0;entryY=0.5;entryDx=0;entryDy=0;" parent="1" source="0fUqM6vZjKM-Aj-SnjUb-31" target="0fUqM6vZjKM-Aj-SnjUb-6" edge="1">
          <mxGeometry width="50" height="50" relative="1" as="geometry">
            <mxPoint x="480" y="300" as="sourcePoint" />
            <mxPoint x="490" y="300" as="targetPoint" />
          </mxGeometry>
        </mxCell>
        <mxCell id="0fUqM6vZjKM-Aj-SnjUb-13" value="" style="endArrow=classic;html=1;rounded=0;exitX=1;exitY=0.5;exitDx=0;exitDy=0;entryX=0;entryY=0.5;entryDx=0;entryDy=0;" parent="1" source="0fUqM6vZjKM-Aj-SnjUb-35" target="0fUqM6vZjKM-Aj-SnjUb-7" edge="1">
          <mxGeometry width="50" height="50" relative="1" as="geometry">
            <mxPoint x="480" y="500" as="sourcePoint" />
            <mxPoint x="500" y="500" as="targetPoint" />
          </mxGeometry>
        </mxCell>
        <mxCell id="0fUqM6vZjKM-Aj-SnjUb-14" value="" style="rounded=1;whiteSpace=wrap;html=1;fillColor=none;" parent="1" vertex="1">
          <mxGeometry x="640" y="260" width="80" height="80" as="geometry" />
        </mxCell>
        <mxCell id="0fUqM6vZjKM-Aj-SnjUb-16" value="" style="endArrow=none;html=1;rounded=0;strokeColor=#FF0000;" parent="1" edge="1">
          <mxGeometry width="50" height="50" relative="1" as="geometry">
            <mxPoint x="680" y="300" as="sourcePoint" />
            <mxPoint x="650" y="300" as="targetPoint" />
          </mxGeometry>
        </mxCell>
        <mxCell id="0fUqM6vZjKM-Aj-SnjUb-17" value="" style="endArrow=none;html=1;rounded=0;strokeColor=#FF0000;" parent="1" edge="1">
          <mxGeometry width="50" height="50" relative="1" as="geometry">
            <mxPoint x="680" y="300" as="sourcePoint" />
            <mxPoint x="710" y="270" as="targetPoint" />
          </mxGeometry>
        </mxCell>
        <mxCell id="0fUqM6vZjKM-Aj-SnjUb-18" value="" style="rounded=1;whiteSpace=wrap;html=1;fillColor=none;" parent="1" vertex="1">
          <mxGeometry x="640" y="460" width="80" height="80" as="geometry" />
        </mxCell>
        <mxCell id="0fUqM6vZjKM-Aj-SnjUb-19" value="" style="endArrow=none;html=1;rounded=0;strokeColor=#FF0000;" parent="1" edge="1">
          <mxGeometry width="50" height="50" relative="1" as="geometry">
            <mxPoint x="710" y="500" as="sourcePoint" />
            <mxPoint x="680" y="500" as="targetPoint" />
          </mxGeometry>
        </mxCell>
        <mxCell id="0fUqM6vZjKM-Aj-SnjUb-20" value="" style="endArrow=none;html=1;rounded=0;strokeColor=#FF0000;" parent="1" edge="1">
          <mxGeometry width="50" height="50" relative="1" as="geometry">
            <mxPoint x="680" y="500" as="sourcePoint" />
            <mxPoint x="650" y="470" as="targetPoint" />
          </mxGeometry>
        </mxCell>
        <mxCell id="0fUqM6vZjKM-Aj-SnjUb-21" value="" style="endArrow=classic;html=1;rounded=0;exitX=1;exitY=0.5;exitDx=0;exitDy=0;entryX=0;entryY=0.5;entryDx=0;entryDy=0;" parent="1" source="0fUqM6vZjKM-Aj-SnjUb-6" edge="1">
          <mxGeometry width="50" height="50" relative="1" as="geometry">
            <mxPoint x="600" y="300" as="sourcePoint" />
            <mxPoint x="640" y="300" as="targetPoint" />
          </mxGeometry>
        </mxCell>
        <mxCell id="0fUqM6vZjKM-Aj-SnjUb-22" value="" style="endArrow=classic;html=1;rounded=0;exitX=1;exitY=0.5;exitDx=0;exitDy=0;entryX=0;entryY=0.5;entryDx=0;entryDy=0;" parent="1" source="0fUqM6vZjKM-Aj-SnjUb-7" edge="1">
          <mxGeometry width="50" height="50" relative="1" as="geometry">
            <mxPoint x="600" y="500" as="sourcePoint" />
            <mxPoint x="640" y="500" as="targetPoint" />
          </mxGeometry>
        </mxCell>
        <mxCell id="0fUqM6vZjKM-Aj-SnjUb-23" value="&lt;h1 style=&quot;margin: 0px 0px 1em; padding: 0.9em 0px 0px; border: 0px; outline: 0px; vertical-align: baseline; background-image: initial; background-position: 0px 0px; background-size: initial; background-repeat: initial; background-attachment: initial; background-origin: initial; background-clip: initial; font-weight: 300; line-height: 1.2; color: rgb(55, 54, 55); font-family: &amp;quot;Source Sans Pro&amp;quot;, Roboto, &amp;quot;San Francisco&amp;quot;, &amp;quot;Segoe UI&amp;quot;, sans-serif;&quot; id=&quot;gen-h1-1-00000001&quot; class=&quot;navigable-headline&quot;&gt;&lt;font style=&quot;font-size: 32px;&quot;&gt;Σ&lt;/font&gt;&lt;/h1&gt;" style="rounded=1;whiteSpace=wrap;html=1;fillColor=#e1d5e7;strokeColor=#9673a6;" parent="1" vertex="1">
          <mxGeometry x="800" y="380" width="40" height="40" as="geometry" />
        </mxCell>
        <mxCell id="0fUqM6vZjKM-Aj-SnjUb-24" value="" style="endArrow=classic;html=1;rounded=0;exitX=1;exitY=0.5;exitDx=0;exitDy=0;entryX=0;entryY=0.5;entryDx=0;entryDy=0;" parent="1" source="0fUqM6vZjKM-Aj-SnjUb-14" target="0fUqM6vZjKM-Aj-SnjUb-23" edge="1">
          <mxGeometry width="50" height="50" relative="1" as="geometry">
            <mxPoint x="680" y="410" as="sourcePoint" />
            <mxPoint x="730" y="360" as="targetPoint" />
          </mxGeometry>
        </mxCell>
        <mxCell id="0fUqM6vZjKM-Aj-SnjUb-25" value="" style="endArrow=classic;html=1;rounded=0;exitX=1;exitY=0.5;exitDx=0;exitDy=0;entryX=0;entryY=0.5;entryDx=0;entryDy=0;" parent="1" source="0fUqM6vZjKM-Aj-SnjUb-18" target="0fUqM6vZjKM-Aj-SnjUb-23" edge="1">
          <mxGeometry width="50" height="50" relative="1" as="geometry">
            <mxPoint x="680" y="410" as="sourcePoint" />
            <mxPoint x="730" y="360" as="targetPoint" />
          </mxGeometry>
        </mxCell>
        <mxCell id="0fUqM6vZjKM-Aj-SnjUb-26" value="" style="rounded=1;whiteSpace=wrap;html=1;fillColor=none;" parent="1" vertex="1">
          <mxGeometry x="880" y="360" width="80" height="80" as="geometry" />
        </mxCell>
        <mxCell id="0fUqM6vZjKM-Aj-SnjUb-28" value="" style="endArrow=none;html=1;rounded=0;strokeColor=#FF0000;" parent="1" edge="1">
          <mxGeometry width="50" height="50" relative="1" as="geometry">
            <mxPoint x="920" y="400" as="sourcePoint" />
            <mxPoint x="950" y="370" as="targetPoint" />
          </mxGeometry>
        </mxCell>
        <mxCell id="0fUqM6vZjKM-Aj-SnjUb-29" value="" style="endArrow=none;html=1;rounded=0;strokeColor=#FF0000;" parent="1" edge="1">
          <mxGeometry width="50" height="50" relative="1" as="geometry">
            <mxPoint x="920" y="400" as="sourcePoint" />
            <mxPoint x="890" y="370" as="targetPoint" />
          </mxGeometry>
        </mxCell>
        <mxCell id="0fUqM6vZjKM-Aj-SnjUb-30" value="" style="endArrow=classic;html=1;rounded=0;entryX=0;entryY=0.5;entryDx=0;entryDy=0;exitX=1;exitY=0.5;exitDx=0;exitDy=0;" parent="1" source="0fUqM6vZjKM-Aj-SnjUb-23" target="0fUqM6vZjKM-Aj-SnjUb-26" edge="1">
          <mxGeometry width="50" height="50" relative="1" as="geometry">
            <mxPoint x="680" y="430" as="sourcePoint" />
            <mxPoint x="730" y="380" as="targetPoint" />
          </mxGeometry>
        </mxCell>
        <mxCell id="0fUqM6vZjKM-Aj-SnjUb-31" value="" style="rounded=1;whiteSpace=wrap;html=1;fillColor=none;" parent="1" vertex="1">
          <mxGeometry x="380" y="260" width="80" height="80" as="geometry" />
        </mxCell>
        <mxCell id="0fUqM6vZjKM-Aj-SnjUb-33" value="" style="endArrow=none;html=1;rounded=0;strokeColor=#FF0000;" parent="1" edge="1">
          <mxGeometry width="50" height="50" relative="1" as="geometry">
            <mxPoint x="390" y="330" as="sourcePoint" />
            <mxPoint x="450" y="270" as="targetPoint" />
          </mxGeometry>
        </mxCell>
        <mxCell id="0fUqM6vZjKM-Aj-SnjUb-35" value="" style="rounded=1;whiteSpace=wrap;html=1;fillColor=none;" parent="1" vertex="1">
          <mxGeometry x="380" y="460" width="80" height="80" as="geometry" />
        </mxCell>
        <mxCell id="0fUqM6vZjKM-Aj-SnjUb-36" value="" style="endArrow=none;html=1;rounded=0;strokeColor=#FF0000;" parent="1" edge="1">
          <mxGeometry width="50" height="50" relative="1" as="geometry">
            <mxPoint x="390" y="470" as="sourcePoint" />
            <mxPoint x="450" y="530" as="targetPoint" />
          </mxGeometry>
        </mxCell>
        <mxCell id="0fUqM6vZjKM-Aj-SnjUb-37" value="...,0,0,0,1,2,..." style="rounded=1;whiteSpace=wrap;html=1;fillColor=#dae8fc;strokeColor=#6c8ebf;" parent="1" vertex="1">
          <mxGeometry x="620" y="350" width="120" height="40" as="geometry" />
        </mxCell>
        <mxCell id="0fUqM6vZjKM-Aj-SnjUb-38" value="...,2,1,0,0,0,..." style="rounded=1;whiteSpace=wrap;html=1;fillColor=#dae8fc;strokeColor=#6c8ebf;" parent="1" vertex="1">
          <mxGeometry x="620" y="550" width="120" height="40" as="geometry" />
        </mxCell>
        <mxCell id="0fUqM6vZjKM-Aj-SnjUb-39" value="...,2,1,0,1,2,..." style="rounded=1;whiteSpace=wrap;html=1;fillColor=#dae8fc;strokeColor=#6c8ebf;" parent="1" vertex="1">
          <mxGeometry x="860" y="450" width="120" height="40" as="geometry" />
        </mxCell>
        <mxCell id="0fUqM6vZjKM-Aj-SnjUb-40" value="" style="endArrow=classic;html=1;rounded=0;exitX=1;exitY=0.5;exitDx=0;exitDy=0;entryX=0;entryY=0.5;entryDx=0;entryDy=0;" parent="1" edge="1">
          <mxGeometry width="50" height="50" relative="1" as="geometry">
            <mxPoint x="320" y="300" as="sourcePoint" />
            <mxPoint x="380" y="300" as="targetPoint" />
          </mxGeometry>
        </mxCell>
        <mxCell id="ESed5X_y8n-qqLtPKYSs-1" value="Translate by -2 in x-direction" style="rounded=1;whiteSpace=wrap;html=1;fillColor=#e1d5e7;strokeColor=#9673a6;" vertex="1" parent="1">
          <mxGeometry x="1040" y="260" width="80" height="80" as="geometry" />
        </mxCell>
        <mxCell id="ESed5X_y8n-qqLtPKYSs-2" value="Translate by 2 in x-direction" style="rounded=1;whiteSpace=wrap;html=1;fillColor=#e1d5e7;strokeColor=#9673a6;" vertex="1" parent="1">
          <mxGeometry x="1040" y="460" width="80" height="80" as="geometry" />
        </mxCell>
        <mxCell id="ESed5X_y8n-qqLtPKYSs-3" value="" style="rounded=1;whiteSpace=wrap;html=1;fillColor=none;" vertex="1" parent="1">
          <mxGeometry x="1170" y="260" width="120" height="80" as="geometry" />
        </mxCell>
        <mxCell id="ESed5X_y8n-qqLtPKYSs-4" value="" style="endArrow=none;html=1;rounded=0;strokeColor=#FF0000;" edge="1" parent="1">
          <mxGeometry width="50" height="50" relative="1" as="geometry">
            <mxPoint x="1250" y="300" as="sourcePoint" />
            <mxPoint x="1280" y="270" as="targetPoint" />
          </mxGeometry>
        </mxCell>
        <mxCell id="ESed5X_y8n-qqLtPKYSs-5" value="" style="endArrow=none;html=1;rounded=0;strokeColor=#FF0000;" edge="1" parent="1">
          <mxGeometry width="50" height="50" relative="1" as="geometry">
            <mxPoint x="1250" y="300" as="sourcePoint" />
            <mxPoint x="1220" y="270" as="targetPoint" />
          </mxGeometry>
        </mxCell>
        <mxCell id="ESed5X_y8n-qqLtPKYSs-6" value="" style="rounded=1;whiteSpace=wrap;html=1;fillColor=none;" vertex="1" parent="1">
          <mxGeometry x="1170" y="460" width="120" height="80" as="geometry" />
        </mxCell>
        <mxCell id="ESed5X_y8n-qqLtPKYSs-7" value="" style="endArrow=none;html=1;rounded=0;strokeColor=#FF0000;" edge="1" parent="1">
          <mxGeometry width="50" height="50" relative="1" as="geometry">
            <mxPoint x="1210" y="500" as="sourcePoint" />
            <mxPoint x="1240" y="470" as="targetPoint" />
          </mxGeometry>
        </mxCell>
        <mxCell id="ESed5X_y8n-qqLtPKYSs-8" value="" style="endArrow=none;html=1;rounded=0;strokeColor=#FF0000;" edge="1" parent="1">
          <mxGeometry width="50" height="50" relative="1" as="geometry">
            <mxPoint x="1210" y="500" as="sourcePoint" />
            <mxPoint x="1180" y="470" as="targetPoint" />
          </mxGeometry>
        </mxCell>
        <mxCell id="ESed5X_y8n-qqLtPKYSs-12" value="Activation&lt;br&gt;Function" style="rounded=1;whiteSpace=wrap;html=1;fillColor=#e1d5e7;strokeColor=#9673a6;" vertex="1" parent="1">
          <mxGeometry x="1340" y="260" width="80" height="80" as="geometry" />
        </mxCell>
        <mxCell id="ESed5X_y8n-qqLtPKYSs-13" value="Activation&lt;br&gt;Function" style="rounded=1;whiteSpace=wrap;html=1;fillColor=#e1d5e7;strokeColor=#9673a6;" vertex="1" parent="1">
          <mxGeometry x="1340" y="460" width="80" height="80" as="geometry" />
        </mxCell>
        <mxCell id="ESed5X_y8n-qqLtPKYSs-14" value="" style="rounded=1;whiteSpace=wrap;html=1;fillColor=none;" vertex="1" parent="1">
          <mxGeometry x="1470" y="260" width="120" height="80" as="geometry" />
        </mxCell>
        <mxCell id="ESed5X_y8n-qqLtPKYSs-15" value="" style="endArrow=none;html=1;rounded=0;strokeColor=#FF0000;" edge="1" parent="1">
          <mxGeometry width="50" height="50" relative="1" as="geometry">
            <mxPoint x="1550" y="300" as="sourcePoint" />
            <mxPoint x="1580" y="270" as="targetPoint" />
          </mxGeometry>
        </mxCell>
        <mxCell id="ESed5X_y8n-qqLtPKYSs-16" value="" style="endArrow=none;html=1;rounded=0;strokeColor=#FF0000;" edge="1" parent="1">
          <mxGeometry width="50" height="50" relative="1" as="geometry">
            <mxPoint x="1550" y="300" as="sourcePoint" />
            <mxPoint x="1520" y="270" as="targetPoint" />
          </mxGeometry>
        </mxCell>
        <mxCell id="ESed5X_y8n-qqLtPKYSs-17" value="" style="rounded=1;whiteSpace=wrap;html=1;fillColor=none;" vertex="1" parent="1">
          <mxGeometry x="1470" y="460" width="120" height="80" as="geometry" />
        </mxCell>
        <mxCell id="ESed5X_y8n-qqLtPKYSs-18" value="" style="endArrow=none;html=1;rounded=0;strokeColor=#FF0000;" edge="1" parent="1">
          <mxGeometry width="50" height="50" relative="1" as="geometry">
            <mxPoint x="1510" y="500" as="sourcePoint" />
            <mxPoint x="1540" y="470" as="targetPoint" />
          </mxGeometry>
        </mxCell>
        <mxCell id="ESed5X_y8n-qqLtPKYSs-19" value="" style="endArrow=none;html=1;rounded=0;strokeColor=#FF0000;" edge="1" parent="1">
          <mxGeometry width="50" height="50" relative="1" as="geometry">
            <mxPoint x="1510" y="500" as="sourcePoint" />
            <mxPoint x="1480" y="470" as="targetPoint" />
          </mxGeometry>
        </mxCell>
        <mxCell id="ESed5X_y8n-qqLtPKYSs-20" value="" style="rounded=1;whiteSpace=wrap;html=1;fillColor=none;" vertex="1" parent="1">
          <mxGeometry x="2020" y="360" width="120" height="80" as="geometry" />
        </mxCell>
        <mxCell id="ESed5X_y8n-qqLtPKYSs-21" value="" style="endArrow=none;html=1;rounded=0;strokeColor=#FF0000;" edge="1" parent="1">
          <mxGeometry width="50" height="50" relative="1" as="geometry">
            <mxPoint x="2070" y="420" as="sourcePoint" />
            <mxPoint x="2090" y="380" as="targetPoint" />
          </mxGeometry>
        </mxCell>
        <mxCell id="ESed5X_y8n-qqLtPKYSs-22" value="" style="endArrow=none;html=1;rounded=0;strokeColor=#FF0000;" edge="1" parent="1">
          <mxGeometry width="50" height="50" relative="1" as="geometry">
            <mxPoint x="2070" y="420" as="sourcePoint" />
            <mxPoint x="2030" y="420" as="targetPoint" />
          </mxGeometry>
        </mxCell>
        <mxCell id="ESed5X_y8n-qqLtPKYSs-23" value="" style="endArrow=none;html=1;rounded=0;strokeColor=#FF0000;" edge="1" parent="1">
          <mxGeometry width="50" height="50" relative="1" as="geometry">
            <mxPoint x="2130" y="380" as="sourcePoint" />
            <mxPoint x="2090" y="380" as="targetPoint" />
          </mxGeometry>
        </mxCell>
        <mxCell id="ESed5X_y8n-qqLtPKYSs-24" value="" style="endArrow=classic;html=1;rounded=0;exitX=1;exitY=0.5;exitDx=0;exitDy=0;entryX=0;entryY=0.5;entryDx=0;entryDy=0;" edge="1" parent="1" source="0fUqM6vZjKM-Aj-SnjUb-26" target="ESed5X_y8n-qqLtPKYSs-1">
          <mxGeometry width="50" height="50" relative="1" as="geometry">
            <mxPoint x="1180" y="460" as="sourcePoint" />
            <mxPoint x="1230" y="410" as="targetPoint" />
          </mxGeometry>
        </mxCell>
        <mxCell id="ESed5X_y8n-qqLtPKYSs-25" value="" style="endArrow=classic;html=1;rounded=0;entryX=0;entryY=0.5;entryDx=0;entryDy=0;" edge="1" parent="1" target="ESed5X_y8n-qqLtPKYSs-2">
          <mxGeometry width="50" height="50" relative="1" as="geometry">
            <mxPoint x="960" y="400" as="sourcePoint" />
            <mxPoint x="1050" y="310" as="targetPoint" />
          </mxGeometry>
        </mxCell>
        <mxCell id="ESed5X_y8n-qqLtPKYSs-26" value="" style="endArrow=classic;html=1;rounded=0;exitX=1;exitY=0.5;exitDx=0;exitDy=0;entryX=0;entryY=0.5;entryDx=0;entryDy=0;" edge="1" parent="1" source="ESed5X_y8n-qqLtPKYSs-1" target="ESed5X_y8n-qqLtPKYSs-3">
          <mxGeometry width="50" height="50" relative="1" as="geometry">
            <mxPoint x="1180" y="460" as="sourcePoint" />
            <mxPoint x="1230" y="410" as="targetPoint" />
          </mxGeometry>
        </mxCell>
        <mxCell id="ESed5X_y8n-qqLtPKYSs-27" value="" style="endArrow=classic;html=1;rounded=0;exitX=1;exitY=0.5;exitDx=0;exitDy=0;entryX=0;entryY=0.5;entryDx=0;entryDy=0;" edge="1" parent="1">
          <mxGeometry width="50" height="50" relative="1" as="geometry">
            <mxPoint x="1120" y="500" as="sourcePoint" />
            <mxPoint x="1170" y="500" as="targetPoint" />
          </mxGeometry>
        </mxCell>
        <mxCell id="ESed5X_y8n-qqLtPKYSs-28" value="" style="endArrow=classic;html=1;rounded=0;exitX=1;exitY=0.5;exitDx=0;exitDy=0;entryX=0;entryY=0.5;entryDx=0;entryDy=0;" edge="1" parent="1">
          <mxGeometry width="50" height="50" relative="1" as="geometry">
            <mxPoint x="1290" y="500" as="sourcePoint" />
            <mxPoint x="1340" y="500" as="targetPoint" />
          </mxGeometry>
        </mxCell>
        <mxCell id="ESed5X_y8n-qqLtPKYSs-29" value="" style="endArrow=classic;html=1;rounded=0;exitX=1;exitY=0.5;exitDx=0;exitDy=0;entryX=0;entryY=0.5;entryDx=0;entryDy=0;" edge="1" parent="1">
          <mxGeometry width="50" height="50" relative="1" as="geometry">
            <mxPoint x="1290" y="300" as="sourcePoint" />
            <mxPoint x="1340" y="300" as="targetPoint" />
          </mxGeometry>
        </mxCell>
        <mxCell id="ESed5X_y8n-qqLtPKYSs-30" value="" style="endArrow=classic;html=1;rounded=0;exitX=1;exitY=0.5;exitDx=0;exitDy=0;entryX=0;entryY=0.5;entryDx=0;entryDy=0;" edge="1" parent="1">
          <mxGeometry width="50" height="50" relative="1" as="geometry">
            <mxPoint x="1420" y="300" as="sourcePoint" />
            <mxPoint x="1470" y="300" as="targetPoint" />
          </mxGeometry>
        </mxCell>
        <mxCell id="ESed5X_y8n-qqLtPKYSs-31" value="" style="endArrow=classic;html=1;rounded=0;exitX=1;exitY=0.5;exitDx=0;exitDy=0;entryX=0;entryY=0.5;entryDx=0;entryDy=0;" edge="1" parent="1">
          <mxGeometry width="50" height="50" relative="1" as="geometry">
            <mxPoint x="1420" y="500" as="sourcePoint" />
            <mxPoint x="1470" y="500" as="targetPoint" />
          </mxGeometry>
        </mxCell>
        <mxCell id="ESed5X_y8n-qqLtPKYSs-32" value="*1" style="text;html=1;strokeColor=none;fillColor=none;align=center;verticalAlign=middle;whiteSpace=wrap;rounded=0;" vertex="1" parent="1">
          <mxGeometry x="760" y="330" width="30" height="30" as="geometry" />
        </mxCell>
        <mxCell id="ESed5X_y8n-qqLtPKYSs-33" value="*1" style="text;html=1;strokeColor=none;fillColor=none;align=center;verticalAlign=middle;whiteSpace=wrap;rounded=0;" vertex="1" parent="1">
          <mxGeometry x="760" y="440" width="30" height="30" as="geometry" />
        </mxCell>
        <mxCell id="ESed5X_y8n-qqLtPKYSs-34" value="" style="endArrow=classic;html=1;rounded=0;exitX=1;exitY=0.5;exitDx=0;exitDy=0;entryX=0;entryY=0.5;entryDx=0;entryDy=0;" edge="1" parent="1" source="ESed5X_y8n-qqLtPKYSs-14" target="ESed5X_y8n-qqLtPKYSs-44">
          <mxGeometry width="50" height="50" relative="1" as="geometry">
            <mxPoint x="1430" y="510" as="sourcePoint" />
            <mxPoint x="1750" y="300" as="targetPoint" />
          </mxGeometry>
        </mxCell>
        <mxCell id="ESed5X_y8n-qqLtPKYSs-35" value="" style="endArrow=classic;html=1;rounded=0;exitX=1;exitY=0.5;exitDx=0;exitDy=0;entryX=0;entryY=0.5;entryDx=0;entryDy=0;" edge="1" parent="1" source="ESed5X_y8n-qqLtPKYSs-17" target="ESed5X_y8n-qqLtPKYSs-45">
          <mxGeometry width="50" height="50" relative="1" as="geometry">
            <mxPoint x="1600" y="310" as="sourcePoint" />
            <mxPoint x="1720" y="510" as="targetPoint" />
          </mxGeometry>
        </mxCell>
        <mxCell id="ESed5X_y8n-qqLtPKYSs-38" value="&lt;h1 style=&quot;margin: 0px 0px 1em; padding: 0.9em 0px 0px; border: 0px; outline: 0px; vertical-align: baseline; background-image: initial; background-position: 0px 0px; background-size: initial; background-repeat: initial; background-attachment: initial; background-origin: initial; background-clip: initial; font-weight: 300; line-height: 1.2; color: rgb(55, 54, 55); font-family: &amp;quot;Source Sans Pro&amp;quot;, Roboto, &amp;quot;San Francisco&amp;quot;, &amp;quot;Segoe UI&amp;quot;, sans-serif;&quot; id=&quot;gen-h1-1-00000001&quot; class=&quot;navigable-headline&quot;&gt;&lt;font style=&quot;font-size: 32px;&quot;&gt;Σ&lt;/font&gt;&lt;/h1&gt;" style="rounded=1;whiteSpace=wrap;html=1;fillColor=#e1d5e7;strokeColor=#9673a6;" vertex="1" parent="1">
          <mxGeometry x="1940" y="380" width="40" height="40" as="geometry" />
        </mxCell>
        <mxCell id="ESed5X_y8n-qqLtPKYSs-39" value="" style="endArrow=classic;html=1;rounded=0;exitX=1;exitY=0.5;exitDx=0;exitDy=0;entryX=0;entryY=0.5;entryDx=0;entryDy=0;" edge="1" parent="1" source="ESed5X_y8n-qqLtPKYSs-38" target="ESed5X_y8n-qqLtPKYSs-20">
          <mxGeometry width="50" height="50" relative="1" as="geometry">
            <mxPoint x="1880" y="310" as="sourcePoint" />
            <mxPoint x="1950" y="410" as="targetPoint" />
          </mxGeometry>
        </mxCell>
        <mxCell id="ESed5X_y8n-qqLtPKYSs-40" value="...0,1,2,3,4..." style="rounded=1;whiteSpace=wrap;html=1;fillColor=#dae8fc;strokeColor=#6c8ebf;" vertex="1" parent="1">
          <mxGeometry x="1170" y="550" width="120" height="40" as="geometry" />
        </mxCell>
        <mxCell id="ESed5X_y8n-qqLtPKYSs-41" value="...4,3,2,1,0,..." style="rounded=1;whiteSpace=wrap;html=1;fillColor=#dae8fc;strokeColor=#6c8ebf;" vertex="1" parent="1">
          <mxGeometry x="1170" y="350" width="120" height="40" as="geometry" />
        </mxCell>
        <mxCell id="ESed5X_y8n-qqLtPKYSs-42" value="...2,1,0,1,2,3,4,5,6..." style="rounded=1;whiteSpace=wrap;html=1;fillColor=#dae8fc;strokeColor=#6c8ebf;" vertex="1" parent="1">
          <mxGeometry x="1470" y="550" width="120" height="40" as="geometry" />
        </mxCell>
        <mxCell id="ESed5X_y8n-qqLtPKYSs-43" value="...6,5,4,3,2,1,0,1,2..." style="rounded=1;whiteSpace=wrap;html=1;fillColor=#dae8fc;strokeColor=#6c8ebf;" vertex="1" parent="1">
          <mxGeometry x="1470" y="350" width="120" height="40" as="geometry" />
        </mxCell>
        <mxCell id="ESed5X_y8n-qqLtPKYSs-44" value="Reflect on the&lt;br&gt;x-axis" style="rounded=1;whiteSpace=wrap;html=1;fillColor=#e1d5e7;strokeColor=#9673a6;" vertex="1" parent="1">
          <mxGeometry x="1640" y="260" width="80" height="80" as="geometry" />
        </mxCell>
        <mxCell id="ESed5X_y8n-qqLtPKYSs-45" value="Identity" style="rounded=1;whiteSpace=wrap;html=1;fillColor=#e1d5e7;strokeColor=#9673a6;" vertex="1" parent="1">
          <mxGeometry x="1640" y="460" width="80" height="80" as="geometry" />
        </mxCell>
        <mxCell id="ESed5X_y8n-qqLtPKYSs-46" value="" style="rounded=1;whiteSpace=wrap;html=1;fillColor=none;" vertex="1" parent="1">
          <mxGeometry x="1770" y="260" width="120" height="80" as="geometry" />
        </mxCell>
        <mxCell id="ESed5X_y8n-qqLtPKYSs-47" value="" style="endArrow=none;html=1;rounded=0;strokeColor=#FF0000;" edge="1" parent="1">
          <mxGeometry width="50" height="50" relative="1" as="geometry">
            <mxPoint x="1820" y="330" as="sourcePoint" />
            <mxPoint x="1850" y="300" as="targetPoint" />
          </mxGeometry>
        </mxCell>
        <mxCell id="ESed5X_y8n-qqLtPKYSs-48" value="" style="endArrow=none;html=1;rounded=0;strokeColor=#FF0000;" edge="1" parent="1">
          <mxGeometry width="50" height="50" relative="1" as="geometry">
            <mxPoint x="1880" y="330" as="sourcePoint" />
            <mxPoint x="1850" y="300" as="targetPoint" />
          </mxGeometry>
        </mxCell>
        <mxCell id="ESed5X_y8n-qqLtPKYSs-49" value="" style="rounded=1;whiteSpace=wrap;html=1;fillColor=none;" vertex="1" parent="1">
          <mxGeometry x="1770" y="460" width="120" height="80" as="geometry" />
        </mxCell>
        <mxCell id="ESed5X_y8n-qqLtPKYSs-50" value="" style="endArrow=none;html=1;rounded=0;strokeColor=#FF0000;" edge="1" parent="1">
          <mxGeometry width="50" height="50" relative="1" as="geometry">
            <mxPoint x="1810" y="500" as="sourcePoint" />
            <mxPoint x="1840" y="470" as="targetPoint" />
          </mxGeometry>
        </mxCell>
        <mxCell id="ESed5X_y8n-qqLtPKYSs-51" value="" style="endArrow=none;html=1;rounded=0;strokeColor=#FF0000;" edge="1" parent="1">
          <mxGeometry width="50" height="50" relative="1" as="geometry">
            <mxPoint x="1810" y="500" as="sourcePoint" />
            <mxPoint x="1780" y="470" as="targetPoint" />
          </mxGeometry>
        </mxCell>
        <mxCell id="ESed5X_y8n-qqLtPKYSs-53" value="...2,1,0,1,2,3,4,..." style="rounded=1;whiteSpace=wrap;html=1;fillColor=#dae8fc;strokeColor=#6c8ebf;" vertex="1" parent="1">
          <mxGeometry x="1770" y="550" width="120" height="40" as="geometry" />
        </mxCell>
        <mxCell id="ESed5X_y8n-qqLtPKYSs-54" value="...-6,-5,-4,-3,-2,-1,0,..." style="rounded=1;whiteSpace=wrap;html=1;fillColor=#dae8fc;strokeColor=#6c8ebf;" vertex="1" parent="1">
          <mxGeometry x="1770" y="350" width="120" height="40" as="geometry" />
        </mxCell>
        <mxCell id="ESed5X_y8n-qqLtPKYSs-55" value="" style="endArrow=classic;html=1;rounded=0;exitX=1;exitY=0.5;exitDx=0;exitDy=0;entryX=0;entryY=0.5;entryDx=0;entryDy=0;" edge="1" parent="1">
          <mxGeometry width="50" height="50" relative="1" as="geometry">
            <mxPoint x="1720" y="300" as="sourcePoint" />
            <mxPoint x="1770" y="300" as="targetPoint" />
          </mxGeometry>
        </mxCell>
        <mxCell id="ESed5X_y8n-qqLtPKYSs-56" value="" style="endArrow=classic;html=1;rounded=0;exitX=1;exitY=0.5;exitDx=0;exitDy=0;entryX=0;entryY=0.5;entryDx=0;entryDy=0;" edge="1" parent="1">
          <mxGeometry width="50" height="50" relative="1" as="geometry">
            <mxPoint x="1720" y="500" as="sourcePoint" />
            <mxPoint x="1770" y="500" as="targetPoint" />
          </mxGeometry>
        </mxCell>
        <mxCell id="ESed5X_y8n-qqLtPKYSs-57" value="" style="endArrow=classic;html=1;rounded=0;exitX=1;exitY=0.5;exitDx=0;exitDy=0;entryX=0;entryY=0.5;entryDx=0;entryDy=0;" edge="1" parent="1" source="ESed5X_y8n-qqLtPKYSs-46" target="ESed5X_y8n-qqLtPKYSs-38">
          <mxGeometry width="50" height="50" relative="1" as="geometry">
            <mxPoint x="1730" y="310" as="sourcePoint" />
            <mxPoint x="1780" y="310" as="targetPoint" />
          </mxGeometry>
        </mxCell>
        <mxCell id="ESed5X_y8n-qqLtPKYSs-58" value="" style="endArrow=classic;html=1;rounded=0;exitX=1;exitY=0.5;exitDx=0;exitDy=0;entryX=0;entryY=0.5;entryDx=0;entryDy=0;" edge="1" parent="1" source="ESed5X_y8n-qqLtPKYSs-49" target="ESed5X_y8n-qqLtPKYSs-38">
          <mxGeometry width="50" height="50" relative="1" as="geometry">
            <mxPoint x="1900" y="310" as="sourcePoint" />
            <mxPoint x="1950" y="410" as="targetPoint" />
          </mxGeometry>
        </mxCell>
        <mxCell id="ESed5X_y8n-qqLtPKYSs-59" value="...-4,-4,-4,2,0,2,4,4,..." style="rounded=1;whiteSpace=wrap;html=1;fillColor=#dae8fc;strokeColor=#6c8ebf;" vertex="1" parent="1">
          <mxGeometry x="2020" y="450" width="120" height="40" as="geometry" />
        </mxCell>
      </root>
    </mxGraphModel>
  </diagram>
</mxfile>
